<mxfile host="app.diagrams.net" agent="Mozilla/5.0 (Windows NT 10.0; Win64; x64) AppleWebKit/537.36 (KHTML, like Gecko) Chrome/131.0.0.0 Safari/537.36" version="26.0.5">
  <diagram name="第 1 页" id="3H5RH6sDCp-eQfBJFU06">
    <mxGraphModel dx="691" dy="366" grid="0" gridSize="10" guides="1" tooltips="1" connect="1" arrows="1" fold="1" page="1" pageScale="1" pageWidth="827" pageHeight="1169" math="0" shadow="0">
      <root>
        <mxCell id="0" />
        <mxCell id="1" parent="0" />
        <mxCell id="JMC2ryz5gxfHEw3Xz7QU-52" style="rounded=0;orthogonalLoop=1;jettySize=auto;html=1;entryX=1.002;entryY=0.348;entryDx=0;entryDy=0;entryPerimeter=0;opacity=70;strokeColor=#67AB9F;fillColor=#CDA2BE;" parent="1" target="JMC2ryz5gxfHEw3Xz7QU-3" edge="1">
          <mxGeometry relative="1" as="geometry">
            <mxPoint x="417" y="90" as="sourcePoint" />
          </mxGeometry>
        </mxCell>
        <mxCell id="JMC2ryz5gxfHEw3Xz7QU-26" style="rounded=0;orthogonalLoop=1;jettySize=auto;html=1;exitX=0.5;exitY=0;exitDx=0;exitDy=0;entryX=0.5;entryY=1;entryDx=0;entryDy=0;opacity=70;strokeColor=#67AB9F;fillColor=#CDA2BE;" parent="1" source="JMC2ryz5gxfHEw3Xz7QU-4" target="JMC2ryz5gxfHEw3Xz7QU-3" edge="1">
          <mxGeometry relative="1" as="geometry" />
        </mxCell>
        <mxCell id="gmNPclNbajeMY96DIaw5-1" style="rounded=0;orthogonalLoop=1;jettySize=auto;html=1;exitX=0.333;exitY=0.012;exitDx=0;exitDy=0;entryX=0.69;entryY=0.981;entryDx=0;entryDy=0;entryPerimeter=0;strokeColor=#67AB9F;opacity=70;fillColor=#CDA2BE;exitPerimeter=0;" parent="1" source="JMC2ryz5gxfHEw3Xz7QU-5" target="JMC2ryz5gxfHEw3Xz7QU-3" edge="1">
          <mxGeometry relative="1" as="geometry" />
        </mxCell>
        <mxCell id="JMC2ryz5gxfHEw3Xz7QU-12" style="rounded=0;orthogonalLoop=1;jettySize=auto;html=1;exitX=0;exitY=1;exitDx=0;exitDy=0;entryX=0.91;entryY=0.24;entryDx=0;entryDy=0;entryPerimeter=0;opacity=70;strokeColor=#67AB9F;fillColor=#CDA2BE;" parent="1" source="JMC2ryz5gxfHEw3Xz7QU-1" target="JMC2ryz5gxfHEw3Xz7QU-3" edge="1">
          <mxGeometry relative="1" as="geometry" />
        </mxCell>
        <mxCell id="JMC2ryz5gxfHEw3Xz7QU-15" style="rounded=0;orthogonalLoop=1;jettySize=auto;html=1;exitX=1;exitY=0.5;exitDx=0;exitDy=0;entryX=0.005;entryY=0.38;entryDx=0;entryDy=0;entryPerimeter=0;opacity=70;strokeColor=#67AB9F;" parent="1" source="JMC2ryz5gxfHEw3Xz7QU-1" target="JMC2ryz5gxfHEw3Xz7QU-10" edge="1">
          <mxGeometry relative="1" as="geometry" />
        </mxCell>
        <mxCell id="FVlRygCp7npzK3AcxWsI-3" style="edgeStyle=orthogonalEdgeStyle;rounded=0;orthogonalLoop=1;jettySize=auto;html=1;exitX=0.5;exitY=1;exitDx=0;exitDy=0;entryX=0.5;entryY=0;entryDx=0;entryDy=0;strokeColor=#67AB9F;opacity=70;" edge="1" parent="1" source="JMC2ryz5gxfHEw3Xz7QU-1" target="JMC2ryz5gxfHEw3Xz7QU-6">
          <mxGeometry relative="1" as="geometry" />
        </mxCell>
        <mxCell id="JMC2ryz5gxfHEw3Xz7QU-1" value="0" style="ellipse;whiteSpace=wrap;html=1;aspect=fixed;fontSize=9;fillColor=#9AC7BF;strokeColor=#67AB9F;" parent="1" vertex="1">
          <mxGeometry x="307" y="43" width="20" height="20" as="geometry" />
        </mxCell>
        <mxCell id="JMC2ryz5gxfHEw3Xz7QU-16" style="rounded=0;orthogonalLoop=1;jettySize=auto;html=1;exitX=0;exitY=1;exitDx=0;exitDy=0;entryX=1;entryY=0;entryDx=0;entryDy=0;opacity=70;strokeColor=#67AB9F;fillColor=#CDA2BE;" parent="1" source="JMC2ryz5gxfHEw3Xz7QU-2" target="JMC2ryz5gxfHEw3Xz7QU-3" edge="1">
          <mxGeometry relative="1" as="geometry" />
        </mxCell>
        <mxCell id="JMC2ryz5gxfHEw3Xz7QU-18" style="rounded=0;orthogonalLoop=1;jettySize=auto;html=1;exitX=0.5;exitY=1;exitDx=0;exitDy=0;entryX=0.32;entryY=0.06;entryDx=0;entryDy=0;opacity=70;entryPerimeter=0;strokeColor=#67AB9F;fillColor=#CDA2BE;" parent="1" source="JMC2ryz5gxfHEw3Xz7QU-2" target="JMC2ryz5gxfHEw3Xz7QU-6" edge="1">
          <mxGeometry relative="1" as="geometry" />
        </mxCell>
        <mxCell id="JMC2ryz5gxfHEw3Xz7QU-19" style="rounded=0;orthogonalLoop=1;jettySize=auto;html=1;exitX=0.78;exitY=0.925;exitDx=0;exitDy=0;entryX=0.27;entryY=0.08;entryDx=0;entryDy=0;opacity=70;entryPerimeter=0;exitPerimeter=0;strokeColor=#67AB9F;" parent="1" source="JMC2ryz5gxfHEw3Xz7QU-2" target="JMC2ryz5gxfHEw3Xz7QU-7" edge="1">
          <mxGeometry relative="1" as="geometry" />
        </mxCell>
        <mxCell id="JMC2ryz5gxfHEw3Xz7QU-2" value="1" style="ellipse;whiteSpace=wrap;html=1;aspect=fixed;fontSize=9;fillColor=#9AC7BF;strokeColor=#67AB9F;" parent="1" vertex="1">
          <mxGeometry x="205" y="68" width="20" height="20" as="geometry" />
        </mxCell>
        <mxCell id="JMC2ryz5gxfHEw3Xz7QU-21" style="rounded=0;orthogonalLoop=1;jettySize=auto;html=1;exitX=1;exitY=0;exitDx=0;exitDy=0;entryX=0;entryY=1;entryDx=0;entryDy=0;strokeColor=#FF6666;opacity=70;" parent="1" source="JMC2ryz5gxfHEw3Xz7QU-3" target="JMC2ryz5gxfHEw3Xz7QU-2" edge="1">
          <mxGeometry relative="1" as="geometry" />
        </mxCell>
        <mxCell id="JMC2ryz5gxfHEw3Xz7QU-22" style="rounded=0;orthogonalLoop=1;jettySize=auto;html=1;exitX=0.92;exitY=0.23;exitDx=0;exitDy=0;entryX=0;entryY=1;entryDx=0;entryDy=0;exitPerimeter=0;strokeColor=#FF6666;opacity=70;" parent="1" source="JMC2ryz5gxfHEw3Xz7QU-3" target="JMC2ryz5gxfHEw3Xz7QU-1" edge="1">
          <mxGeometry relative="1" as="geometry" />
        </mxCell>
        <mxCell id="JMC2ryz5gxfHEw3Xz7QU-23" style="rounded=0;orthogonalLoop=1;jettySize=auto;html=1;entryX=0.5;entryY=0;entryDx=0;entryDy=0;strokeColor=#FF6666;opacity=70;" parent="1" source="JMC2ryz5gxfHEw3Xz7QU-3" target="JMC2ryz5gxfHEw3Xz7QU-4" edge="1">
          <mxGeometry relative="1" as="geometry" />
        </mxCell>
        <mxCell id="JMC2ryz5gxfHEw3Xz7QU-25" style="rounded=0;orthogonalLoop=1;jettySize=auto;html=1;entryX=0.06;entryY=0.76;entryDx=0;entryDy=0;strokeColor=#FF6666;exitX=0.98;exitY=0.36;exitDx=0;exitDy=0;exitPerimeter=0;entryPerimeter=0;opacity=70;" parent="1" source="JMC2ryz5gxfHEw3Xz7QU-3" target="JMC2ryz5gxfHEw3Xz7QU-10" edge="1">
          <mxGeometry relative="1" as="geometry" />
        </mxCell>
        <mxCell id="JMC2ryz5gxfHEw3Xz7QU-3" value="2" style="ellipse;whiteSpace=wrap;html=1;aspect=fixed;fillColor=#F8CECC;fontSize=9;strokeColor=#F19C99;" parent="1" vertex="1">
          <mxGeometry x="144" y="157" width="20" height="20" as="geometry" />
        </mxCell>
        <mxCell id="JMC2ryz5gxfHEw3Xz7QU-28" style="rounded=0;orthogonalLoop=1;jettySize=auto;html=1;entryX=0;entryY=0;entryDx=0;entryDy=0;exitX=1;exitY=0.5;exitDx=0;exitDy=0;opacity=70;strokeColor=#67AB9F;fillColor=#CDA2BE;" parent="1" source="JMC2ryz5gxfHEw3Xz7QU-4" target="JMC2ryz5gxfHEw3Xz7QU-6" edge="1">
          <mxGeometry relative="1" as="geometry" />
        </mxCell>
        <mxCell id="FVlRygCp7npzK3AcxWsI-10" style="rounded=0;orthogonalLoop=1;jettySize=auto;html=1;exitX=0.95;exitY=0.267;exitDx=0;exitDy=0;entryX=0;entryY=1;entryDx=0;entryDy=0;exitPerimeter=0;strokeColor=#67AB9F;opacity=70;" edge="1" parent="1" source="JMC2ryz5gxfHEw3Xz7QU-4" target="JMC2ryz5gxfHEw3Xz7QU-10">
          <mxGeometry relative="1" as="geometry" />
        </mxCell>
        <mxCell id="JMC2ryz5gxfHEw3Xz7QU-4" value="3" style="ellipse;whiteSpace=wrap;html=1;aspect=fixed;fontSize=9;fillColor=#9AC7BF;strokeColor=#67AB9F;" parent="1" vertex="1">
          <mxGeometry x="144" y="261" width="20" height="20" as="geometry" />
        </mxCell>
        <mxCell id="JMC2ryz5gxfHEw3Xz7QU-31" style="rounded=0;orthogonalLoop=1;jettySize=auto;html=1;opacity=70;strokeColor=#67AB9F;fillColor=#CDA2BE;" parent="1" source="JMC2ryz5gxfHEw3Xz7QU-5" target="JMC2ryz5gxfHEw3Xz7QU-6" edge="1">
          <mxGeometry relative="1" as="geometry" />
        </mxCell>
        <mxCell id="JMC2ryz5gxfHEw3Xz7QU-34" style="rounded=0;orthogonalLoop=1;jettySize=auto;html=1;entryX=0;entryY=1;entryDx=0;entryDy=0;opacity=70;exitX=1;exitY=0;exitDx=0;exitDy=0;strokeColor=#67AB9F;" parent="1" source="JMC2ryz5gxfHEw3Xz7QU-5" target="JMC2ryz5gxfHEw3Xz7QU-9" edge="1">
          <mxGeometry relative="1" as="geometry">
            <mxPoint x="235" y="330" as="sourcePoint" />
          </mxGeometry>
        </mxCell>
        <mxCell id="FVlRygCp7npzK3AcxWsI-1" style="edgeStyle=orthogonalEdgeStyle;rounded=0;orthogonalLoop=1;jettySize=auto;html=1;exitX=0.5;exitY=0;exitDx=0;exitDy=0;entryX=0.5;entryY=1;entryDx=0;entryDy=0;fillColor=#9AC7BF;strokeColor=#67AB9F;curved=0;opacity=70;" edge="1" parent="1" source="JMC2ryz5gxfHEw3Xz7QU-5" target="JMC2ryz5gxfHEw3Xz7QU-2">
          <mxGeometry relative="1" as="geometry" />
        </mxCell>
        <mxCell id="FVlRygCp7npzK3AcxWsI-7" style="rounded=0;orthogonalLoop=1;jettySize=auto;html=1;exitX=0;exitY=0;exitDx=0;exitDy=0;entryX=1;entryY=1;entryDx=0;entryDy=0;strokeColor=#67AB9F;opacity=70;" edge="1" parent="1" source="JMC2ryz5gxfHEw3Xz7QU-5" target="JMC2ryz5gxfHEw3Xz7QU-4">
          <mxGeometry relative="1" as="geometry" />
        </mxCell>
        <mxCell id="JMC2ryz5gxfHEw3Xz7QU-5" value="4" style="ellipse;whiteSpace=wrap;html=1;aspect=fixed;fontSize=9;fillColor=#9AC7BF;strokeColor=#67AB9F;" parent="1" vertex="1">
          <mxGeometry x="205" y="326" width="20" height="20" as="geometry" />
        </mxCell>
        <mxCell id="JMC2ryz5gxfHEw3Xz7QU-36" style="rounded=0;orthogonalLoop=1;jettySize=auto;html=1;exitX=0.31;exitY=0.065;exitDx=0;exitDy=0;entryX=0.5;entryY=1;entryDx=0;entryDy=0;exitPerimeter=0;strokeColor=#FF6666;opacity=70;" parent="1" source="JMC2ryz5gxfHEw3Xz7QU-6" target="JMC2ryz5gxfHEw3Xz7QU-2" edge="1">
          <mxGeometry relative="1" as="geometry" />
        </mxCell>
        <mxCell id="JMC2ryz5gxfHEw3Xz7QU-38" style="rounded=0;orthogonalLoop=1;jettySize=auto;html=1;exitX=0;exitY=0;exitDx=0;exitDy=0;entryX=1;entryY=0.5;entryDx=0;entryDy=0;strokeColor=#FF6666;opacity=70;" parent="1" source="JMC2ryz5gxfHEw3Xz7QU-6" target="JMC2ryz5gxfHEw3Xz7QU-4" edge="1">
          <mxGeometry relative="1" as="geometry" />
        </mxCell>
        <mxCell id="FVlRygCp7npzK3AcxWsI-16" style="rounded=0;orthogonalLoop=1;jettySize=auto;html=1;exitX=0.665;exitY=0.036;exitDx=0;exitDy=0;exitPerimeter=0;strokeColor=#67AB9F;opacity=70;" edge="1" parent="1" source="JMC2ryz5gxfHEw3Xz7QU-6">
          <mxGeometry relative="1" as="geometry">
            <mxPoint x="490" y="176" as="targetPoint" />
          </mxGeometry>
        </mxCell>
        <mxCell id="JMC2ryz5gxfHEw3Xz7QU-6" value="5" style="ellipse;whiteSpace=wrap;html=1;aspect=fixed;fillColor=#F8CECC;fontSize=9;strokeColor=#F19C99;" parent="1" vertex="1">
          <mxGeometry x="307" y="349" width="20" height="20" as="geometry" />
        </mxCell>
        <mxCell id="JMC2ryz5gxfHEw3Xz7QU-39" style="rounded=0;orthogonalLoop=1;jettySize=auto;html=1;exitX=1;exitY=0;exitDx=0;exitDy=0;entryX=0;entryY=1;entryDx=0;entryDy=0;opacity=70;strokeColor=#67AB9F;" parent="1" source="JMC2ryz5gxfHEw3Xz7QU-7" target="JMC2ryz5gxfHEw3Xz7QU-8" edge="1">
          <mxGeometry relative="1" as="geometry" />
        </mxCell>
        <mxCell id="gmNPclNbajeMY96DIaw5-2" style="rounded=0;orthogonalLoop=1;jettySize=auto;html=1;exitX=0.017;exitY=0.7;exitDx=0;exitDy=0;entryX=1;entryY=0.5;entryDx=0;entryDy=0;strokeColor=#67AB9F;opacity=70;exitPerimeter=0;fillColor=#CDA2BE;" parent="1" source="JMC2ryz5gxfHEw3Xz7QU-7" target="JMC2ryz5gxfHEw3Xz7QU-6" edge="1">
          <mxGeometry relative="1" as="geometry" />
        </mxCell>
        <mxCell id="FVlRygCp7npzK3AcxWsI-8" style="rounded=0;orthogonalLoop=1;jettySize=auto;html=1;exitX=0;exitY=0;exitDx=0;exitDy=0;entryX=1;entryY=0.5;entryDx=0;entryDy=0;strokeColor=#67AB9F;opacity=70;" edge="1" parent="1" source="JMC2ryz5gxfHEw3Xz7QU-7" target="JMC2ryz5gxfHEw3Xz7QU-4">
          <mxGeometry relative="1" as="geometry" />
        </mxCell>
        <mxCell id="FVlRygCp7npzK3AcxWsI-11" style="rounded=0;orthogonalLoop=1;jettySize=auto;html=1;exitX=0;exitY=0;exitDx=0;exitDy=0;entryX=1;entryY=1;entryDx=0;entryDy=0;strokeColor=#67AB9F;opacity=70;" edge="1" parent="1" source="JMC2ryz5gxfHEw3Xz7QU-7" target="JMC2ryz5gxfHEw3Xz7QU-3">
          <mxGeometry relative="1" as="geometry" />
        </mxCell>
        <mxCell id="FVlRygCp7npzK3AcxWsI-19" style="edgeStyle=orthogonalEdgeStyle;rounded=0;orthogonalLoop=1;jettySize=auto;html=1;exitX=0.5;exitY=0;exitDx=0;exitDy=0;entryX=0.5;entryY=1;entryDx=0;entryDy=0;strokeColor=#67AB9F;opacity=70;" edge="1" parent="1" source="JMC2ryz5gxfHEw3Xz7QU-7" target="JMC2ryz5gxfHEw3Xz7QU-10">
          <mxGeometry relative="1" as="geometry" />
        </mxCell>
        <mxCell id="JMC2ryz5gxfHEw3Xz7QU-7" value="6" style="ellipse;whiteSpace=wrap;html=1;aspect=fixed;fontSize=9;fillColor=#9AC7BF;strokeColor=#67AB9F;" parent="1" vertex="1">
          <mxGeometry x="416" y="326" width="20" height="20" as="geometry" />
        </mxCell>
        <mxCell id="JMC2ryz5gxfHEw3Xz7QU-44" style="rounded=0;orthogonalLoop=1;jettySize=auto;html=1;exitX=0;exitY=1;exitDx=0;exitDy=0;entryX=1;entryY=0;entryDx=0;entryDy=0;opacity=70;strokeColor=#67AB9F;" parent="1" source="JMC2ryz5gxfHEw3Xz7QU-8" target="JMC2ryz5gxfHEw3Xz7QU-7" edge="1">
          <mxGeometry relative="1" as="geometry" />
        </mxCell>
        <mxCell id="JMC2ryz5gxfHEw3Xz7QU-8" value="7" style="ellipse;whiteSpace=wrap;html=1;aspect=fixed;fontSize=9;fillColor=#9AC7BF;strokeColor=#67AB9F;" parent="1" vertex="1">
          <mxGeometry x="486" y="261" width="20" height="20" as="geometry" />
        </mxCell>
        <mxCell id="JMC2ryz5gxfHEw3Xz7QU-46" style="rounded=0;orthogonalLoop=1;jettySize=auto;html=1;exitX=0;exitY=0.5;exitDx=0;exitDy=0;entryX=1;entryY=1;entryDx=0;entryDy=0;opacity=70;strokeColor=#67AB9F;" parent="1" source="JMC2ryz5gxfHEw3Xz7QU-9" target="JMC2ryz5gxfHEw3Xz7QU-2" edge="1">
          <mxGeometry relative="1" as="geometry" />
        </mxCell>
        <mxCell id="JMC2ryz5gxfHEw3Xz7QU-47" style="rounded=0;orthogonalLoop=1;jettySize=auto;html=1;exitX=0;exitY=0.5;exitDx=0;exitDy=0;entryX=1;entryY=0.5;entryDx=0;entryDy=0;opacity=70;strokeColor=#67AB9F;fillColor=#CDA2BE;" parent="1" source="JMC2ryz5gxfHEw3Xz7QU-9" target="JMC2ryz5gxfHEw3Xz7QU-3" edge="1">
          <mxGeometry relative="1" as="geometry" />
        </mxCell>
        <mxCell id="FVlRygCp7npzK3AcxWsI-5" style="rounded=0;orthogonalLoop=1;jettySize=auto;html=1;exitX=0.06;exitY=0.3;exitDx=0;exitDy=0;entryX=0.965;entryY=0.75;entryDx=0;entryDy=0;exitPerimeter=0;entryPerimeter=0;strokeColor=#67AB9F;opacity=70;" edge="1" parent="1" source="JMC2ryz5gxfHEw3Xz7QU-9" target="JMC2ryz5gxfHEw3Xz7QU-1">
          <mxGeometry relative="1" as="geometry" />
        </mxCell>
        <mxCell id="FVlRygCp7npzK3AcxWsI-9" style="rounded=0;orthogonalLoop=1;jettySize=auto;html=1;entryX=1;entryY=0.5;entryDx=0;entryDy=0;strokeColor=#67AB9F;opacity=70;" edge="1" parent="1" target="JMC2ryz5gxfHEw3Xz7QU-4">
          <mxGeometry relative="1" as="geometry">
            <mxPoint x="486" y="171" as="sourcePoint" />
          </mxGeometry>
        </mxCell>
        <mxCell id="FVlRygCp7npzK3AcxWsI-20" style="edgeStyle=orthogonalEdgeStyle;rounded=0;orthogonalLoop=1;jettySize=auto;html=1;exitX=0.5;exitY=1;exitDx=0;exitDy=0;entryX=0.5;entryY=0;entryDx=0;entryDy=0;fillColor=#67AB9F;strokeColor=#67AB9F;opacity=70;" edge="1" parent="1" source="JMC2ryz5gxfHEw3Xz7QU-9" target="JMC2ryz5gxfHEw3Xz7QU-8">
          <mxGeometry relative="1" as="geometry" />
        </mxCell>
        <mxCell id="JMC2ryz5gxfHEw3Xz7QU-9" value="8" style="ellipse;whiteSpace=wrap;html=1;aspect=fixed;fontSize=9;fillColor=#9AC7BF;strokeColor=#67AB9F;" parent="1" vertex="1">
          <mxGeometry x="486" y="157" width="20" height="20" as="geometry" />
        </mxCell>
        <mxCell id="JMC2ryz5gxfHEw3Xz7QU-51" style="rounded=0;orthogonalLoop=1;jettySize=auto;html=1;exitX=0;exitY=0.375;exitDx=0;exitDy=0;entryX=1;entryY=0.5;entryDx=0;entryDy=0;exitPerimeter=0;opacity=70;strokeColor=#67AB9F;" parent="1" source="JMC2ryz5gxfHEw3Xz7QU-10" target="JMC2ryz5gxfHEw3Xz7QU-1" edge="1">
          <mxGeometry relative="1" as="geometry" />
        </mxCell>
        <mxCell id="FVlRygCp7npzK3AcxWsI-23" style="rounded=0;orthogonalLoop=1;jettySize=auto;html=1;exitX=1;exitY=1;exitDx=0;exitDy=0;entryX=0;entryY=0;entryDx=0;entryDy=0;strokeColor=#67AB9F;opacity=70;" edge="1" parent="1" source="JMC2ryz5gxfHEw3Xz7QU-10" target="JMC2ryz5gxfHEw3Xz7QU-9">
          <mxGeometry relative="1" as="geometry" />
        </mxCell>
        <mxCell id="JMC2ryz5gxfHEw3Xz7QU-10" value="9" style="ellipse;whiteSpace=wrap;html=1;aspect=fixed;fontSize=9;fillColor=#9AC7BF;strokeColor=#67AB9F;" parent="1" vertex="1">
          <mxGeometry x="416" y="75" width="20" height="20" as="geometry" />
        </mxCell>
        <mxCell id="JMC2ryz5gxfHEw3Xz7QU-20" style="rounded=0;orthogonalLoop=1;jettySize=auto;html=1;exitX=1;exitY=1;exitDx=0;exitDy=0;entryX=0;entryY=0.5;entryDx=0;entryDy=0;opacity=70;strokeColor=#67AB9F;" parent="1" source="JMC2ryz5gxfHEw3Xz7QU-2" target="JMC2ryz5gxfHEw3Xz7QU-9" edge="1">
          <mxGeometry relative="1" as="geometry" />
        </mxCell>
        <mxCell id="JMC2ryz5gxfHEw3Xz7QU-27" style="rounded=0;orthogonalLoop=1;jettySize=auto;html=1;entryX=0.34;entryY=0.94;entryDx=0;entryDy=0;entryPerimeter=0;exitX=0.68;exitY=0.02;exitDx=0;exitDy=0;exitPerimeter=0;opacity=70;strokeColor=#67AB9F;" parent="1" source="JMC2ryz5gxfHEw3Xz7QU-4" target="JMC2ryz5gxfHEw3Xz7QU-2" edge="1">
          <mxGeometry relative="1" as="geometry">
            <mxPoint x="194" y="249" as="sourcePoint" />
          </mxGeometry>
        </mxCell>
        <mxCell id="JMC2ryz5gxfHEw3Xz7QU-42" style="rounded=0;orthogonalLoop=1;jettySize=auto;html=1;exitX=0.035;exitY=0.35;exitDx=0;exitDy=0;entryX=0.995;entryY=0.61;entryDx=0;entryDy=0;entryPerimeter=0;exitPerimeter=0;opacity=70;strokeColor=#67AB9F;fillColor=#CDA2BE;" parent="1" source="JMC2ryz5gxfHEw3Xz7QU-8" target="JMC2ryz5gxfHEw3Xz7QU-3" edge="1">
          <mxGeometry relative="1" as="geometry" />
        </mxCell>
        <mxCell id="JMC2ryz5gxfHEw3Xz7QU-43" style="rounded=0;orthogonalLoop=1;jettySize=auto;html=1;exitX=0.023;exitY=0.729;exitDx=0;exitDy=0;entryX=0.94;entryY=0.248;entryDx=0;entryDy=0;entryPerimeter=0;opacity=70;strokeColor=#67AB9F;exitPerimeter=0;fillColor=#CDA2BE;" parent="1" source="JMC2ryz5gxfHEw3Xz7QU-8" target="JMC2ryz5gxfHEw3Xz7QU-6" edge="1">
          <mxGeometry relative="1" as="geometry" />
        </mxCell>
        <mxCell id="JMC2ryz5gxfHEw3Xz7QU-49" style="rounded=0;orthogonalLoop=1;jettySize=auto;html=1;exitX=0;exitY=1;exitDx=0;exitDy=0;opacity=70;entryX=1;entryY=0;entryDx=0;entryDy=0;strokeColor=#67AB9F;" parent="1" source="JMC2ryz5gxfHEw3Xz7QU-9" target="JMC2ryz5gxfHEw3Xz7QU-5" edge="1">
          <mxGeometry relative="1" as="geometry">
            <mxPoint x="236" y="329" as="targetPoint" />
          </mxGeometry>
        </mxCell>
        <mxCell id="JMC2ryz5gxfHEw3Xz7QU-50" style="rounded=0;orthogonalLoop=1;jettySize=auto;html=1;entryX=0.66;entryY=0.04;entryDx=0;entryDy=0;entryPerimeter=0;opacity=70;strokeColor=#67AB9F;exitX=0.184;exitY=0.921;exitDx=0;exitDy=0;exitPerimeter=0;fillColor=#CDA2BE;" parent="1" source="JMC2ryz5gxfHEw3Xz7QU-9" target="JMC2ryz5gxfHEw3Xz7QU-6" edge="1">
          <mxGeometry relative="1" as="geometry">
            <mxPoint x="493" y="193" as="sourcePoint" />
          </mxGeometry>
        </mxCell>
        <mxCell id="gmNPclNbajeMY96DIaw5-5" style="rounded=0;orthogonalLoop=1;jettySize=auto;html=1;exitX=0.954;exitY=0.254;exitDx=0;exitDy=0;entryX=0.044;entryY=0.716;entryDx=0;entryDy=0;entryPerimeter=0;strokeColor=#FF6666;opacity=70;exitPerimeter=0;" parent="1" source="JMC2ryz5gxfHEw3Xz7QU-6" target="JMC2ryz5gxfHEw3Xz7QU-8" edge="1">
          <mxGeometry relative="1" as="geometry" />
        </mxCell>
        <mxCell id="gmNPclNbajeMY96DIaw5-6" style="rounded=0;orthogonalLoop=1;jettySize=auto;html=1;exitX=0.244;exitY=0.048;exitDx=0;exitDy=0;entryX=0.761;entryY=0.908;entryDx=0;entryDy=0;entryPerimeter=0;strokeColor=#67AB9F;opacity=70;exitPerimeter=0;" parent="1" source="JMC2ryz5gxfHEw3Xz7QU-7" target="JMC2ryz5gxfHEw3Xz7QU-2" edge="1">
          <mxGeometry relative="1" as="geometry" />
        </mxCell>
        <mxCell id="FVlRygCp7npzK3AcxWsI-4" style="rounded=0;orthogonalLoop=1;jettySize=auto;html=1;exitX=1;exitY=0;exitDx=0;exitDy=0;entryX=0.29;entryY=0.94;entryDx=0;entryDy=0;entryPerimeter=0;strokeColor=#67AB9F;opacity=70;" edge="1" parent="1" source="JMC2ryz5gxfHEw3Xz7QU-4" target="JMC2ryz5gxfHEw3Xz7QU-1">
          <mxGeometry relative="1" as="geometry" />
        </mxCell>
        <mxCell id="FVlRygCp7npzK3AcxWsI-6" style="rounded=0;orthogonalLoop=1;jettySize=auto;html=1;exitX=0.29;exitY=0.99;exitDx=0;exitDy=0;entryX=0.66;entryY=0.1;entryDx=0;entryDy=0;entryPerimeter=0;exitPerimeter=0;strokeColor=#67AB9F;opacity=70;" edge="1" parent="1" source="JMC2ryz5gxfHEw3Xz7QU-2" target="JMC2ryz5gxfHEw3Xz7QU-4">
          <mxGeometry relative="1" as="geometry" />
        </mxCell>
        <mxCell id="FVlRygCp7npzK3AcxWsI-12" style="rounded=0;orthogonalLoop=1;jettySize=auto;html=1;exitX=0.967;exitY=0.617;exitDx=0;exitDy=0;entryX=0.033;entryY=0.367;entryDx=0;entryDy=0;entryPerimeter=0;exitPerimeter=0;strokeColor=#EA6B66;opacity=70;" edge="1" parent="1" source="JMC2ryz5gxfHEw3Xz7QU-3" target="JMC2ryz5gxfHEw3Xz7QU-8">
          <mxGeometry relative="1" as="geometry" />
        </mxCell>
        <mxCell id="FVlRygCp7npzK3AcxWsI-14" style="rounded=0;orthogonalLoop=1;jettySize=auto;html=1;exitX=0.283;exitY=0.95;exitDx=0;exitDy=0;entryX=0.717;entryY=0.067;entryDx=0;entryDy=0;entryPerimeter=0;exitPerimeter=0;strokeColor=#67AB9F;opacity=70;" edge="1" parent="1" source="JMC2ryz5gxfHEw3Xz7QU-10" target="JMC2ryz5gxfHEw3Xz7QU-6">
          <mxGeometry relative="1" as="geometry" />
        </mxCell>
        <mxCell id="FVlRygCp7npzK3AcxWsI-15" style="rounded=0;orthogonalLoop=1;jettySize=auto;html=1;exitX=-0.017;exitY=0.367;exitDx=0;exitDy=0;entryX=1.017;entryY=0.65;entryDx=0;entryDy=0;entryPerimeter=0;exitPerimeter=0;strokeColor=#EA6B66;opacity=70;" edge="1" parent="1" source="JMC2ryz5gxfHEw3Xz7QU-6" target="JMC2ryz5gxfHEw3Xz7QU-5">
          <mxGeometry relative="1" as="geometry" />
        </mxCell>
        <mxCell id="FVlRygCp7npzK3AcxWsI-17" style="rounded=0;orthogonalLoop=1;jettySize=auto;html=1;entryX=0.696;entryY=0.028;entryDx=0;entryDy=0;entryPerimeter=0;strokeColor=#67AB9F;opacity=70;" edge="1" parent="1" target="JMC2ryz5gxfHEw3Xz7QU-7">
          <mxGeometry relative="1" as="geometry">
            <mxPoint x="491" y="176" as="sourcePoint" />
          </mxGeometry>
        </mxCell>
        <mxCell id="FVlRygCp7npzK3AcxWsI-18" style="edgeStyle=orthogonalEdgeStyle;rounded=0;orthogonalLoop=1;jettySize=auto;html=1;exitX=0;exitY=0.5;exitDx=0;exitDy=0;strokeColor=#67AB9F;opacity=70;" edge="1" parent="1" source="JMC2ryz5gxfHEw3Xz7QU-7">
          <mxGeometry relative="1" as="geometry">
            <mxPoint x="225" y="336" as="targetPoint" />
          </mxGeometry>
        </mxCell>
        <mxCell id="FVlRygCp7npzK3AcxWsI-21" style="rounded=0;orthogonalLoop=1;jettySize=auto;html=1;exitX=0;exitY=0.5;exitDx=0;exitDy=0;entryX=0.964;entryY=0.311;entryDx=0;entryDy=0;entryPerimeter=0;strokeColor=#67AB9F;opacity=70;" edge="1" parent="1" source="JMC2ryz5gxfHEw3Xz7QU-8" target="JMC2ryz5gxfHEw3Xz7QU-5">
          <mxGeometry relative="1" as="geometry" />
        </mxCell>
        <mxCell id="FVlRygCp7npzK3AcxWsI-22" style="rounded=0;orthogonalLoop=1;jettySize=auto;html=1;exitX=0.7;exitY=0.05;exitDx=0;exitDy=0;entryX=0.275;entryY=0.889;entryDx=0;entryDy=0;entryPerimeter=0;exitPerimeter=0;strokeColor=#67AB9F;opacity=70;" edge="1" parent="1" source="JMC2ryz5gxfHEw3Xz7QU-5" target="JMC2ryz5gxfHEw3Xz7QU-10">
          <mxGeometry relative="1" as="geometry" />
        </mxCell>
        <mxCell id="FVlRygCp7npzK3AcxWsI-13" style="edgeStyle=orthogonalEdgeStyle;rounded=0;orthogonalLoop=1;jettySize=auto;html=1;strokeColor=#EA6B66;opacity=70;entryX=0;entryY=0.5;entryDx=0;entryDy=0;" edge="1" parent="1" target="JMC2ryz5gxfHEw3Xz7QU-9">
          <mxGeometry relative="1" as="geometry">
            <mxPoint x="164" y="167" as="sourcePoint" />
          </mxGeometry>
        </mxCell>
      </root>
    </mxGraphModel>
  </diagram>
</mxfile>
